<svg width="564" height="36" xmlns="http://www.w3.org/2000/svg" xmlns:xlink="http://www.w3.org/1999/xlink" xmlns:svgjs="http://svgjs.com/svgjs" viewBox="0 0.503 564 34.995" fill="#5bccff"><svg xmlns="http://www.w3.org/2000/svg" width="564" height="36" viewBox="1.857 1.511 563.296 34.951"><path paint-order="stroke fill markers" fill-rule="evenodd" d="M2.143 34.48l-.286-.96 57-17 .286.96-57 17zm56.666-17.018l.382-.924 46 19-.382.924-46-19zm46.44 18.971l-.499-.866 59-34 .5.866-59 34zM163.896 2.49l.21-.978 121 26-.21.978-121-26zM285.07 28.495l-.142-.99 112-16 .142.99-112 16zm111.836-16.004l.186-.982 106 20-.186.982-106-20zm106.246 19.985l-.307-.952 62-20 .307.952-62 20z"/></svg></svg>