<svg width="574" height="46" xmlns="http://www.w3.org/2000/svg" xmlns:xlink="http://www.w3.org/1999/xlink" xmlns:svgjs="http://svgjs.com/svgjs" viewBox="0 0.503 574 44.995" fill="#a889e9"><svg xmlns="http://www.w3.org/2000/svg" width="574" height="46" viewBox="1.779 1.552 573.367 44.945"><path paint-order="stroke fill markers" fill-rule="evenodd" d="M1.779 2.448l.442-.896 79 39-.442.896-79-39zm79.589 38.89l-.736-.677 35-38 .736.678-35 38zm34.59-37.84l.083-.996 60 5-.083.996-60-5zm59.803 4.941l.478-.878 46 25-.478.878-46-25zm46.44 25.019l-.402-.916 66-29 .402.916-66 29zm65.49-29.065l.618-.786 51 40-.618.786-51-40zm51.367 40.104l-.117-.994 68-8 .117.994-68 8zm67.884-8l.116-.994 86 10-.116.994-86-10zm86.189 9.986l-.262-.966 59-16 .262.966-59 16zm58.723-16.005l.292-.956 23 7-.292.956-23-7z"/></svg></svg>